#!OML:ASF H:\Punching\Project 1\Capture day 1\Session 1\female.ASF
:FULLY-SPECIFIED
:DEGREES
771
root -1.51277 14.6918 5.69001 15.5636 4.23585 0.887197
lowerback 1.85991 -2.07545 -1.28551
upperback -2.9592 -2.82886 -0.0731291
thorax -4.03042 -1.37138 0.793405
lowerneck -5.92447 5.79091 14.5824
upperneck 30.9882 7.23124 -5.03951
head 11.9061 4.3618 -3.51883
rclavicle -7.35503e-015 2.18663e-015
rhumerus 11.5062 29.4343 -78.6145
rradius 134.019
rwrist -45.6477
rhand -15.7121 -6.65037
rfingers 7.12502
rthumb 10.4778 -36.3692
lclavicle -7.35503e-015 2.18663e-015
lhumerus 11.2332 -18.7373 73.1807
lradius 136.202
lwrist 35.6535
lhand -12.1643 32.1088
lfingers 7.12502
lthumb 13.8987 61.6243
rfemur -49.7189 4.83855 9.18142
rtibia 52.9002
rfoot -18.566 -2.15843
rtoes -6.30574
lfemur 4.74143 -7.98581 -5.59708
ltibia 14.4944
lfoot -19.8569 4.71092
ltoes -33.3318
772
root -1.52296 14.7097 5.6943 15.5627 6.82491 1.17198
lowerback 2.02987 -1.8655 -0.894135
upperback -2.98922 -2.52705 0.125733
thorax -4.17174 -1.22818 0.771209
lowerneck -6.27696 4.9301 13.5909
upperneck 30.8441 5.9721 -4.48179
head 11.6984 3.74937 -3.29705
rclavicle 2.53823e-014 4.57205e-015
rhumerus 11.3247 28.4636 -78.0368
rradius 134.497
rwrist -45.3688
rhand -15.8363 -6.6386
rfingers 7.12502
rthumb 10.3581 -36.3635
lclavicle 2.53823e-014 4.57205e-015
lhumerus 10.9168 -21.8792 74.4574
lradius 138.138
lwrist 34.4044
lhand -11.8617 31.4192
lfingers 7.12502
lthumb 14.1903 60.9146
rfemur -48.8306 3.38889 9.13483
rtibia 53.0202
rfoot -18.7491 -3.14149
rtoes -6.60099
lfemur 3.09924 -8.554 -4.86496
ltibia 15.5703
lfoot -19.9393 3.40087
ltoes -33.1942
773
root -1.53482 14.7269 5.6996 15.5468 9.4749 1.37936
lowerback 2.20279 -1.661 -0.439876
upperback -2.99928 -2.22655 0.3476
thorax -4.29387 -1.08792 0.735455
lowerneck -6.70816 4.0552 12.6064
upperneck 30.7164 4.68516 -3.90364
head 11.537 3.12667 -3.06645
rclavicle -2.44754e-015 6.75868e-015
rhumerus 11.2191 27.4051 -77.3887
rradius 135.004
rwrist -45.1536
rhand -15.9453 -6.63671
rfingers 7.12502
rthumb 10.253 -36.3668
lclavicle -2.44754e-015 6.75868e-015
lhumerus 10.8006 -24.8014 75.5982
lradius 139.673
lwrist 32.9976
lhand -11.4224 30.7783
lfingers 7.12502
lthumb 14.6136 60.2434
rfemur -47.8751 1.93783 9.18751
rtibia 53.1016
rfoot -18.9392 -4.18647
rtoes -6.9173
lfemur 1.44193 -9.13785 -4.04277
ltibia 16.6182
lfoot -19.9963 2.06796
ltoes -33.0234
774
root -1.54867 14.7428 5.70555 15.503 12.1722 1.49132
lowerback 2.38282 -1.4692 0.0902406
upperback -3.02256 -1.93577 0.599651
thorax -4.4333 -0.954834 0.687728
lowerneck -7.08271 3.16405 11.6237
upperneck 30.5674 3.38896 -3.31123
head 11.3817 2.50181 -2.82927
rclavicle -8.24956e-015 -1.23246e-014
rhumerus 11.1091 26.286 -76.715
rradius 135.541
rwrist -45.0494
rhand -16.0253 -6.62758
rfingers 7.12502
rthumb 10.1757 -36.3615
lclavicle -8.24956e-015 -1.23246e-014
lhumerus 10.7886 -27.426 76.6292
lradius 140.846
lwrist 31.6022
lhand -10.9508 30.2585
lfingers 7.12502
lthumb 15.0679 59.6901
rfemur -46.8624 0.519491 9.35146
rtibia 53.144
rfoot -19.1291 -5.3092
rtoes -7.24713
lfemur -0.236221 -9.731 -3.11602
ltibia 17.658
lfoot -20.0381 0.711829
ltoes -32.7868
775
root -1.56394 14.7568 5.71165 15.4157 14.8817 1.50672
lowerback 2.5742 -1.28785 0.691698
upperback -3.04967 -1.65099 0.877488
thorax -4.58237 -0.827238 0.625791
lowerneck -7.43775 2.26809 10.6324
upperneck 30.4135 2.09135 -2.69013
head 11.2473 1.87878 -2.57787
rclavicle 6.19711e-014 1.27222e-014
rhumerus 11.028 25.0956 -76.0104
rradius 136.096
rwrist -45.1072
rhand -16.0771 -6.63359
rfingers 7.12502
rthumb 10.1258 -36.3699
lclavicle 6.19711e-014 1.27222e-014
lhumerus 10.9005 -29.7133 77.5382
lradius 141.682
lwrist 30.3626
lhand -10.5595 29.9084
lfingers 7.12502
lthumb 15.4448 59.3114
rfemur -45.8066 -0.837274 9.61643
rtibia 53.1505
rfoot -19.3123 -6.49856
rtoes -7.53393
lfemur -1.91964 -10.3399 -2.10596
ltibia 18.6959
lfoot -20.0777 -0.631203
ltoes -32.479
776
root -1.58066 14.7683 5.71695 15.2794 17.5583 1.41577
lowerback 2.78666 -1.11333 1.36058
upperback -3.09297 -1.36627 1.17471
thorax -4.75925 -0.702389 0.545366
lowerneck -7.74744 1.37651 9.64481
upperneck 30.2455 0.804459 -2.03779
head 11.1266 1.26468 -2.3131
rclavicle 5.53615e-014 -1.78906e-014
rhumerus 10.9556 23.8425 -75.2987
rradius 136.669
rwrist -45.3479
rhand -16.1222 -6.67055
rfingers 7.12502
rthumb 10.0823 -36.409
lclavicle 5.53615e-014 -1.78906e-014
lhumerus 11.1074 -31.6853 78.3253
lradius 142.214
lwrist 29.3785
lhand -10.3645 29.7374
lfingers 7.12502
lthumb 15.6327 59.1258
rfemur -44.7229 -2.09445 9.9809
rtibia 53.0697
rfoot -19.4376 -7.74013
rtoes -7.72732
lfemur -3.51108 -10.9599 -1.02308
ltibia 19.5529
lfoot -20.03 -1.91233
ltoes -32.1067
777
root -1.59778 14.777 5.72131 15.0821 20.1511 1.22696
lowerback 3.01237 -0.941621 2.07833
upperback -3.14432 -1.07646 1.48032
thorax -4.95041 -0.577625 0.444774
lowerneck -7.9987 0.499176 8.67317
upperneck 30.0476 -0.459736 -1.35507
head 11.0119 0.665508 -2.03668
rclavicle 8.24956e-014 -1.03368e-014
rhumerus 10.8985 22.5305 -74.5936
rradius 137.24
rwrist -45.7733
rhand -16.1668 -6.75134
rfingers 7.12502
rthumb 10.0393 -36.4919
lclavicle 8.24956e-014 -1.03368e-014
lhumerus 11.4121 -33.3773 78.9824
lradius 142.482
lwrist 28.699
lhand -10.4172 29.7287
lfingers 7.12502
lthumb 15.5819 59.1211
rfemur -43.6511 -3.23454 10.4255
rtibia 52.9678
rfoot -19.5399 -9.00451
rtoes -7.81462
lfemur -5.06479 -11.5902 0.0931254
ltibia 20.4061
lfoot -20.0074 -3.07305
ltoes -31.7089
